<svg xmlns="http://www.w3.org/2000/svg" width="1437" height="849" fill="none"><mask id="b" width="1437" height="849" x="0" y="0" maskUnits="userSpaceOnUse" style="mask-type:alpha"><path fill="url(#a)" d="M0 0h1436.92v849H0z"/></mask><g mask="url(#b)"><g clip-path="url(#c)"><path fill="url(#d)" stroke="url(#e)" stroke-width=".834" d="M-6.522-8.502h65.906v851.166H-6.522z"/></g><g clip-path="url(#f)"><path fill="url(#g)" fill-opacity=".5" d="M71.481-8.919h66.74v852h-66.74z"/></g><g clip-path="url(#h)"><path fill="url(#i)" fill-opacity=".5" d="M149.901-8.919h66.74v852h-66.74z"/></g><g clip-path="url(#j)"><path fill="url(#k)" fill-opacity=".5" d="M228.321-8.919h66.74v852h-66.74z"/></g><g clip-path="url(#l)"><path fill="url(#m)" d="M306.741-8.919h66.74v852h-66.74z"/><path stroke="url(#n)" stroke-opacity=".7" stroke-width=".834" d="M307.158-8.502h65.906v851.166h-65.906z"/></g><g clip-path="url(#o)" opacity=".8"><path fill="url(#p)" d="M385.161-8.919h66.74v852h-66.74z"/></g><g clip-path="url(#q)" opacity=".4"><path fill="url(#r)" d="M463.581-8.919h66.74v852h-66.74z"/><path stroke="url(#s)" stroke-opacity=".8" stroke-width=".834" d="M463.998-8.502h65.906v851.166h-65.906z"/></g><g clip-path="url(#t)"><path fill="url(#u)" stroke="url(#v)" stroke-width=".834" d="M542.418-8.502h65.906v851.166h-65.906z"/></g><g clip-path="url(#w)" opacity=".3"><path fill="url(#x)" fill-opacity=".5" d="M620.421-8.919h66.74v852h-66.74z"/><path stroke="url(#y)" stroke-opacity=".6" stroke-width=".834" d="M620.838-8.502h65.906v851.166h-65.906z"/></g><g clip-path="url(#z)"><path fill="url(#A)" stroke="url(#B)" stroke-width=".834" d="M699.258-8.502h65.906v851.166h-65.906z"/></g><g clip-path="url(#C)" opacity=".3"><path fill="url(#D)" d="M777.261-8.919h66.74v852h-66.74z"/></g><g clip-path="url(#E)"><path fill="url(#F)" d="M855.681-8.919h66.74v852h-66.74z"/><path stroke="url(#G)" stroke-opacity=".7" stroke-width=".834" d="M856.098-8.502h65.906v851.166h-65.906z"/></g><g clip-path="url(#H)"><path fill="url(#I)" fill-opacity=".7" d="M934.101-8.919h66.74v852h-66.74z"/></g><path fill="url(#J)" stroke="url(#K)" stroke-width=".834" d="M1012.94-8.502h65.906v851.166h-65.906z"/><g clip-path="url(#L)"><path fill="url(#M)" fill-opacity=".5" d="M1090.94-8.919h66.74v852h-66.74z"/></g><g clip-path="url(#N)"><path fill="url(#O)" stroke="url(#P)" stroke-width=".834" d="M1169.78-8.502h65.906v851.166h-65.906z"/></g><g clip-path="url(#Q)"><path fill="url(#R)" stroke="url(#S)" stroke-width=".834" d="M1248.2-8.502h65.906v851.166H1248.2z"/></g><g clip-path="url(#T)"><path fill="url(#U)" stroke="url(#V)" stroke-width=".834" d="M1326.62-8.502h65.906v851.166h-65.906z"/></g><g clip-path="url(#W)"><path fill="url(#X)" stroke="url(#Y)" stroke-width=".834" d="M1405.04-8.502h65.906v851.166h-65.906z"/></g><mask id="aa" width="714" height="711" x="336" y="-9" maskUnits="userSpaceOnUse" style="mask-type:alpha"><path fill="url(#Z)" d="M336-8.919h714v710H336z"/></mask></g><defs><linearGradient id="d" x1="20.031" x2="28.234" y1="163.581" y2="804.064" gradientUnits="userSpaceOnUse"><stop stop-color="#fff" stop-opacity=".03"/><stop offset="1" stop-color="#fff" stop-opacity=".01"/></linearGradient><linearGradient id="g" x1="98.451" x2="106.654" y1="163.581" y2="804.064" gradientUnits="userSpaceOnUse"><stop stop-color="#fff" stop-opacity=".03"/><stop offset="1" stop-color="#fff" stop-opacity=".01"/></linearGradient><linearGradient id="i" x1="176.871" x2="185.074" y1="163.581" y2="804.064" gradientUnits="userSpaceOnUse"><stop stop-color="#fff" stop-opacity=".03"/><stop offset="1" stop-color="#fff" stop-opacity=".01"/></linearGradient><linearGradient id="k" x1="255.291" x2="263.494" y1="163.581" y2="804.064" gradientUnits="userSpaceOnUse"><stop stop-color="#fff" stop-opacity=".03"/><stop offset="1" stop-color="#fff" stop-opacity=".01"/></linearGradient><linearGradient id="m" x1="333.711" x2="341.914" y1="163.581" y2="804.064" gradientUnits="userSpaceOnUse"><stop stop-color="#fff" stop-opacity=".03"/><stop offset="1" stop-color="#fff" stop-opacity=".01"/></linearGradient><linearGradient id="p" x1="412.131" x2="420.334" y1="163.581" y2="804.064" gradientUnits="userSpaceOnUse"><stop stop-color="#fff" stop-opacity=".03"/><stop offset="1" stop-color="#fff" stop-opacity=".01"/></linearGradient><linearGradient id="r" x1="490.551" x2="498.754" y1="163.581" y2="804.064" gradientUnits="userSpaceOnUse"><stop stop-color="#fff" stop-opacity=".03"/><stop offset="1" stop-color="#fff" stop-opacity=".01"/></linearGradient><linearGradient id="u" x1="568.971" x2="577.174" y1="163.581" y2="804.064" gradientUnits="userSpaceOnUse"><stop stop-color="#fff" stop-opacity=".03"/><stop offset="1" stop-color="#fff" stop-opacity=".01"/></linearGradient><linearGradient id="x" x1="647.391" x2="655.595" y1="163.581" y2="804.064" gradientUnits="userSpaceOnUse"><stop stop-color="#fff" stop-opacity=".03"/><stop offset="1" stop-color="#fff" stop-opacity=".01"/></linearGradient><linearGradient id="A" x1="725.811" x2="734.015" y1="163.581" y2="804.064" gradientUnits="userSpaceOnUse"><stop stop-color="#fff" stop-opacity=".03"/><stop offset="1" stop-color="#fff" stop-opacity=".01"/></linearGradient><linearGradient id="D" x1="804.231" x2="812.435" y1="163.581" y2="804.064" gradientUnits="userSpaceOnUse"><stop stop-color="#fff" stop-opacity=".03"/><stop offset="1" stop-color="#fff" stop-opacity=".01"/></linearGradient><linearGradient id="F" x1="882.651" x2="890.855" y1="163.581" y2="804.064" gradientUnits="userSpaceOnUse"><stop stop-color="#fff" stop-opacity=".03"/><stop offset="1" stop-color="#fff" stop-opacity=".01"/></linearGradient><linearGradient id="I" x1="961.071" x2="969.275" y1="163.581" y2="804.064" gradientUnits="userSpaceOnUse"><stop stop-color="#fff" stop-opacity=".03"/><stop offset="1" stop-color="#fff" stop-opacity=".01"/></linearGradient><linearGradient id="J" x1="1039.49" x2="1047.69" y1="163.581" y2="804.064" gradientUnits="userSpaceOnUse"><stop stop-color="#fff" stop-opacity=".03"/><stop offset="1" stop-color="#fff" stop-opacity=".01"/></linearGradient><linearGradient id="M" x1="1117.91" x2="1126.11" y1="163.581" y2="804.064" gradientUnits="userSpaceOnUse"><stop stop-color="#fff" stop-opacity=".03"/><stop offset="1" stop-color="#fff" stop-opacity=".01"/></linearGradient><linearGradient id="O" x1="1196.33" x2="1204.53" y1="163.581" y2="804.064" gradientUnits="userSpaceOnUse"><stop stop-color="#fff" stop-opacity=".03"/><stop offset="1" stop-color="#fff" stop-opacity=".01"/></linearGradient><linearGradient id="R" x1="1274.75" x2="1282.95" y1="163.581" y2="804.064" gradientUnits="userSpaceOnUse"><stop stop-color="#fff" stop-opacity=".03"/><stop offset="1" stop-color="#fff" stop-opacity=".01"/></linearGradient><linearGradient id="U" x1="1353.17" x2="1361.37" y1="163.581" y2="804.064" gradientUnits="userSpaceOnUse"><stop stop-color="#fff" stop-opacity=".03"/><stop offset="1" stop-color="#fff" stop-opacity=".01"/></linearGradient><linearGradient id="X" x1="1431.59" x2="1439.79" y1="163.581" y2="804.064" gradientUnits="userSpaceOnUse"><stop stop-color="#fff" stop-opacity=".03"/><stop offset="1" stop-color="#fff" stop-opacity=".01"/></linearGradient><clipPath id="c"><path fill="#fff" d="M-6.94-8.919H59.8v710H-6.94z"/></clipPath><clipPath id="f"><path fill="#fff" d="M71.48-8.919h66.74v710H71.48z"/></clipPath><clipPath id="h"><path fill="#fff" d="M149.901-8.919h66.74v710h-66.74z"/></clipPath><clipPath id="j"><path fill="#fff" d="M228.321-8.919h66.74v710h-66.74z"/></clipPath><clipPath id="l"><path fill="#fff" d="M306.741-8.919h66.74v710h-66.74z"/></clipPath><clipPath id="o"><path fill="#fff" d="M385.161-8.919h66.74v710h-66.74z"/></clipPath><clipPath id="q"><path fill="#fff" d="M463.581-8.919h66.74v710h-66.74z"/></clipPath><clipPath id="t"><path fill="#fff" d="M542.001-8.919h66.74v710h-66.74z"/></clipPath><clipPath id="w"><path fill="#fff" d="M620.421-8.919h66.74v710h-66.74z"/></clipPath><clipPath id="z"><path fill="#fff" d="M698.841-8.919h66.74v710h-66.74z"/></clipPath><clipPath id="C"><path fill="#fff" d="M777.261-8.919h66.74v710h-66.74z"/></clipPath><clipPath id="E"><path fill="#fff" d="M855.681-8.919h66.74v710h-66.74z"/></clipPath><clipPath id="H"><path fill="#fff" d="M934.101-8.919h66.74v710h-66.74z"/></clipPath><clipPath id="L"><path fill="#fff" d="M1090.94-8.919h66.74v710h-66.74z"/></clipPath><clipPath id="N"><path fill="#fff" d="M1169.36-8.919h66.74v710h-66.74z"/></clipPath><clipPath id="Q"><path fill="#fff" d="M1247.78-8.919h66.74v710h-66.74z"/></clipPath><clipPath id="T"><path fill="#fff" d="M1326.2-8.919h66.74v710h-66.74z"/></clipPath><clipPath id="W"><path fill="#fff" d="M1404.62-8.919h66.74v710h-66.74z"/></clipPath><radialGradient id="a" cx="0" cy="0" r="1" gradientTransform="matrix(0 656 -493.762 0 692.961 18.5)" gradientUnits="userSpaceOnUse"><stop stop-color="#fff"/><stop offset=".582" stop-color="#fff" stop-opacity=".7"/><stop offset="1" stop-color="#fff" stop-opacity="0"/></radialGradient><radialGradient id="e" cx="0" cy="0" r="1" gradientTransform="matrix(183.306 802 -62.8232 17.179 41.516 407.581)" gradientUnits="userSpaceOnUse"><stop stop-color="#3f91f5" stop-opacity=".4"/><stop offset="1" stop-color="#3f91f5" stop-opacity="0"/></radialGradient><radialGradient id="n" cx="0" cy="0" r="1" gradientTransform="matrix(183.306 802 -62.8232 17.179 355.196 407.581)" gradientUnits="userSpaceOnUse"><stop stop-color="#47ffd4" stop-opacity=".4"/><stop offset="1" stop-color="#47ffd4" stop-opacity="0"/></radialGradient><radialGradient id="s" cx="0" cy="0" r="1" gradientTransform="matrix(183.306 802 -62.8232 17.179 512.036 407.581)" gradientUnits="userSpaceOnUse"><stop stop-color="#47ffd4" stop-opacity=".4"/><stop offset="1" stop-color="#47ffd4" stop-opacity="0"/></radialGradient><radialGradient id="v" cx="0" cy="0" r="1" gradientTransform="matrix(61.5 433.5 -34.083 6.31309 564.641 357.081)" gradientUnits="userSpaceOnUse"><stop stop-color="#47ffd4" stop-opacity=".4"/><stop offset="1" stop-color="#47ffd4" stop-opacity="0"/></radialGradient><radialGradient id="y" cx="0" cy="0" r="1" gradientTransform="matrix(183.306 802 -62.8232 17.179 668.876 407.581)" gradientUnits="userSpaceOnUse"><stop stop-color="#47ffd4" stop-opacity=".4"/><stop offset="1" stop-color="#ff6d47" stop-opacity="0"/></radialGradient><radialGradient id="B" cx="0" cy="0" r="1" gradientTransform="matrix(164.961 613 -47.9352 15.0964 765.641 596.581)" gradientUnits="userSpaceOnUse"><stop stop-color="#47ffd4" stop-opacity=".4"/><stop offset="1" stop-color="#47ffd4" stop-opacity="0"/></radialGradient><radialGradient id="G" cx="0" cy="0" r="1" gradientTransform="matrix(183.306 802 -62.8232 17.179 904.136 407.581)" gradientUnits="userSpaceOnUse"><stop stop-color="#47ffd4" stop-opacity=".4"/><stop offset="1" stop-color="#47ffd4" stop-opacity="0"/></radialGradient><radialGradient id="K" cx="0" cy="0" r="1" gradientTransform="matrix(183.306 802 -62.8232 17.179 1060.98 407.581)" gradientUnits="userSpaceOnUse"><stop stop-color="#47ffd4" stop-opacity=".4"/><stop offset="1" stop-color="#47ffd4" stop-opacity="0"/></radialGradient><radialGradient id="P" cx="0" cy="0" r="1" gradientTransform="matrix(183.306 802 -62.8232 17.179 1217.82 407.581)" gradientUnits="userSpaceOnUse"><stop stop-color="#3f91f5" stop-opacity=".4"/><stop offset="1" stop-color="#3f91f5" stop-opacity="0"/></radialGradient><radialGradient id="S" cx="0" cy="0" r="1" gradientTransform="matrix(183.306 802 -62.8232 17.179 1296.24 407.581)" gradientUnits="userSpaceOnUse"><stop stop-color="#3f91f5" stop-opacity=".4"/><stop offset="1" stop-color="#3f91f5" stop-opacity="0"/></radialGradient><radialGradient id="V" cx="0" cy="0" r="1" gradientTransform="matrix(183.306 802 -62.8232 17.179 1374.66 407.581)" gradientUnits="userSpaceOnUse"><stop stop-color="#3f91f5" stop-opacity=".4"/><stop offset="1" stop-color="#3f91f5" stop-opacity="0"/></radialGradient><radialGradient id="Y" cx="0" cy="0" r="1" gradientTransform="matrix(183.306 802 -62.8232 17.179 1453.08 407.581)" gradientUnits="userSpaceOnUse"><stop stop-color="#3f91f5" stop-opacity=".4"/><stop offset="1" stop-color="#3f91f5" stop-opacity="0"/></radialGradient><radialGradient id="Z" cx="0" cy="0" r="1" gradientTransform="rotate(90.08 173.953 519.302)scale(355 270.259)" gradientUnits="userSpaceOnUse"><stop stop-color="#fff"/><stop offset=".582" stop-color="#fff"/><stop offset="1" stop-color="#fff" stop-opacity="0"/></radialGradient></defs></svg>