<svg xmlns="http://www.w3.org/2000/svg" width="26" height="26" fill="none"><path fill="#43f4b6" fill-rule="evenodd" d="M18.445 9.977a.423.423 0 1 0 0 .846h1.748l-.017.016-2.679 2.679-4.49.898-.125.025-.09.09-6.462 6.462a.423.423 0 1 0 .598.598l6.371-6.37 4.49-.899.125-.025.091-.09 2.77-2.77.017-.018v1.75a.423.423 0 0 0 .846 0V9.977h-3.193m2.346.88v-.034h-.034z" clip-rule="evenodd"/><path stroke="#baeed0" stroke-linecap="round" stroke-miterlimit="10" stroke-width=".846" d="M10.46 20.616v1.692M13 18.923v3.385M15.54 19.77v2.538M18.078 17.23v5.078M20.617 15.539v6.769"/><path fill="url(#a)" fill-opacity=".3" d="M15.485 11.177c.143-.394.214-.806.268-1.237.017-.125.017-.233.017-.34v-.197c0-.664-.124-1.309-.338-1.9l-.053-.162v-.018a3 3 0 0 0-.143-.322 3 3 0 0 0-.285-.52c-.018-.036-.036-.054-.053-.09a5.4 5.4 0 0 0-.873-1.04c-.053-.053-.125-.107-.178-.16-.018-.018-.036-.036-.053-.036L13.74 5.1c-.16-.126-.303-.251-.463-.34l-.018-.019s-.018-.018-.035-.018c-.09-.053-.196-.125-.303-.179a3 3 0 0 0-.552-.269.3.3 0 0 0-.16-.053 3.4 3.4 0 0 0-.606-.198c-.035 0-.053-.017-.089-.017-.036-.018-.089-.018-.125-.036a1.3 1.3 0 0 0-.285-.072 3 3 0 0 0-.587-.054h-.285a6 6 0 0 0-.997.09c-.054 0-.107.018-.143.018-.107.036-.214.054-.32.09-.09 0-.16.035-.232.053-.267.09-.534.18-.766.323-.053.018-.107.054-.16.071-.214.126-.427.27-.641.413-.036.036-.071.053-.125.09-.214.179-.427.358-.605.555-.054.054-.09.09-.143.161-.035.036-.071.072-.107.126a4.3 4.3 0 0 0-.516.753c-.036.053-.053.09-.09.16-.106.216-.213.431-.302.664a2 2 0 0 0-.125.34c-.089.27-.16.538-.195.807-.018.09-.018.18-.036.269-.036.197-.036.394-.036.591v.341c0 .054 0 .126.018.18v.071c.018.09.018.18.036.269a3 3 0 0 0 .089.412c0 .054.035.126.035.161.054.144.107.287.16.413.019.071.054.125.072.197.018.054.036.125.071.18.16.357.356.698.57 1.003 0 .018.018.036.018.036.071.09.142.179.214.286.089.09.16.18.249.287.285.305.623.592.98.825.053.036.088.071.142.09.018 0 .018.017.035.017.09.054.196.126.303.162.071.053.16.09.25.125a.4.4 0 0 0 .16.072l.427.161a.5.5 0 0 0 .214.054.26.26 0 0 0 .125.036c.053.018.124.036.178.053.07.018.142.036.213.036.107.018.214.036.32.036"/><path stroke="#baeed0" stroke-linecap="round" stroke-miterlimit="10" stroke-width=".846" d="M15.485 11.177c.143-.394.214-.806.268-1.237.017-.125.017-.233.017-.34v-.197c0-.664-.124-1.309-.338-1.9l-.053-.162v-.018a3 3 0 0 0-.143-.322 3 3 0 0 0-.285-.52c-.018-.036-.036-.054-.053-.09a5.4 5.4 0 0 0-.873-1.04c-.053-.053-.125-.107-.178-.16-.018-.018-.036-.036-.053-.036L13.74 5.1c-.16-.126-.303-.251-.463-.34l-.018-.019s-.018-.018-.035-.018c-.09-.053-.196-.125-.303-.179a3 3 0 0 0-.552-.269.3.3 0 0 0-.16-.053 3.4 3.4 0 0 0-.606-.198c-.035 0-.053-.017-.089-.017-.036-.018-.089-.018-.125-.036a1.3 1.3 0 0 0-.285-.072 3 3 0 0 0-.587-.054h-.285a6 6 0 0 0-.997.09c-.054 0-.107.018-.143.018-.107.036-.214.054-.32.09-.09 0-.16.035-.232.053-.267.09-.534.18-.766.323-.053.018-.107.054-.16.071-.214.126-.427.27-.641.413-.036.036-.071.053-.125.09-.214.179-.427.358-.605.555-.054.054-.09.09-.143.161-.035.036-.071.072-.107.126a4.3 4.3 0 0 0-.516.753c-.036.053-.053.09-.09.16-.106.216-.213.431-.302.664a2 2 0 0 0-.125.34c-.089.27-.16.538-.195.807-.018.09-.018.18-.036.269-.036.197-.036.394-.036.591v.341c0 .054 0 .126.018.18v.071c.018.09.018.18.036.269a3 3 0 0 0 .089.412c0 .054.035.126.035.161.054.144.107.287.16.413.019.071.054.125.072.197.018.054.036.125.071.18.16.357.356.698.57 1.003 0 .018.018.036.018.036.071.09.142.179.214.286.089.09.16.18.249.287.285.305.623.592.98.825.053.036.088.071.142.09.018 0 .018.017.035.017.09.054.196.126.303.162.071.053.16.09.25.125a.4.4 0 0 0 .16.072l.427.161a.5.5 0 0 0 .214.054.26.26 0 0 0 .125.036c.053.018.124.036.178.053.07.018.142.036.213.036.107.018.214.036.32.036"/><path stroke="#baeed0" stroke-linecap="round" stroke-miterlimit="10" stroke-width=".846" d="M10.092 9.083H11c.66 0 1.156.495 1.156 1.073 0 .577-.495 1.073-1.156 1.073H9.102M10.916 9.083h-.908c-.743 0-1.239-.496-1.239-1.074 0-.577.496-1.073 1.156-1.073h1.899M10.502 5.863v.908M10.502 11.229v.908"/><g filter="url(#b)" opacity=".5"><path fill="#43f4b6" d="M14.926 14.308a2.77 2.77 0 1 0 0-5.539 2.77 2.77 0 0 0 0 5.539"/></g><g filter="url(#c)" opacity=".5"><path fill="#43f4b6" d="M14.924 13.754a2.215 2.215 0 1 0 0-4.431 2.215 2.215 0 0 0 0 4.43"/></g><g filter="url(#d)"><path fill="#baeed0" d="M14.925 13.2a1.662 1.662 0 1 0 0-3.323 1.662 1.662 0 0 0 0 3.323"/></g><g filter="url(#e)"><path fill="#fff" d="M14.928 12.646a1.108 1.108 0 1 0 0-2.215 1.108 1.108 0 0 0 0 2.215"/></g><defs><filter id="b" width="13.662" height="13.662" x="8.095" y="4.708" color-interpolation-filters="sRGB" filterUnits="userSpaceOnUse"><feFlood flood-opacity="0" result="BackgroundImageFix"/><feBlend in="SourceGraphic" in2="BackgroundImageFix" result="shape"/><feGaussianBlur result="effect1_foregroundBlur_2011_1868" stdDeviation="2.031"/></filter><filter id="c" width="12.554" height="12.554" x="8.647" y="5.261" color-interpolation-filters="sRGB" filterUnits="userSpaceOnUse"><feFlood flood-opacity="0" result="BackgroundImageFix"/><feBlend in="SourceGraphic" in2="BackgroundImageFix" result="shape"/><feGaussianBlur result="effect1_foregroundBlur_2011_1868" stdDeviation="2.031"/></filter><filter id="d" width="7.385" height="7.385" x="11.233" y="7.846" color-interpolation-filters="sRGB" filterUnits="userSpaceOnUse"><feFlood flood-opacity="0" result="BackgroundImageFix"/><feBlend in="SourceGraphic" in2="BackgroundImageFix" result="shape"/><feGaussianBlur result="effect1_foregroundBlur_2011_1868" stdDeviation="1.015"/></filter><filter id="e" width="3.231" height="3.231" x="13.313" y="9.923" color-interpolation-filters="sRGB" filterUnits="userSpaceOnUse"><feFlood flood-opacity="0" result="BackgroundImageFix"/><feBlend in="SourceGraphic" in2="BackgroundImageFix" result="shape"/><feGaussianBlur result="effect1_foregroundBlur_2011_1868" stdDeviation=".254"/></filter><linearGradient id="a" x1="7.001" x2="12.54" y1="5.231" y2="13.077" gradientUnits="userSpaceOnUse"><stop stop-color="#f49643"/><stop offset="1" stop-color="#01010a"/></linearGradient></defs></svg>