<svg xmlns="http://www.w3.org/2000/svg" width="24" height="24" fill="none"><path fill="#bd4dd6" d="M2 5c0-1.657 3.134-3 7-3s7 1.343 7 3c0 .768-.674 1.47-1.782 2-1.282.614-3.145 1-5.218 1s-3.936-.386-5.218-1C2.674 6.47 2 5.768 2 5M2 17q0-.183.05-.36c.04-.144.21-.19.338-.116q.274.157.53.28c.866.414 1.89.727 3.006.93.156.027.25.191.206.344a3.3 3.3 0 0 0-.112 1.271c.02.18-.137.339-.313.299A9.3 9.3 0 0 1 3.782 19C2.674 18.47 2 17.768 2 17M6 15c0-.328.047-.635.13-.922a.27.27 0 0 0-.206-.345c-1.115-.202-2.14-.515-3.005-.93a8 8 0 0 1-.531-.279c-.129-.074-.298-.028-.338.116Q2 12.817 2 13c0 .768.674 1.47 1.782 2a9.3 9.3 0 0 0 1.923.648c.176.04.332-.119.313-.299A3 3 0 0 1 6 15M15 10q.176 0 .35.003a.45.45 0 0 0 .39-.19c.17-.258.26-.53.26-.813q0-.183-.05-.36c-.04-.144-.21-.19-.338-.116a8 8 0 0 1-.53.28C13.46 9.58 11.284 10 9 10s-4.461-.42-6.081-1.196a8 8 0 0 1-.531-.28c-.129-.074-.298-.028-.338.116Q2 8.817 2 9c0 .768.674 1.47 1.782 2 .96.46 2.246.792 3.701.93a.5.5 0 0 0 .347-.098 7.7 7.7 0 0 1 1.432-.792c1.57-.673 3.6-1.04 5.738-1.04M15 12c-3.866 0-7 1.343-7 3 0 .346.137.68.39.989.306.377.784.72 1.392 1.011 1.282.614 3.145 1 5.218 1s3.936-.386 5.218-1C21.326 16.47 22 15.768 22 15c0-1.569-2.81-2.856-6.39-2.989A16 16 0 0 0 15 12M8 19q0-.182.05-.359c.04-.143.208-.19.337-.116q.263.15.532.279C10.539 19.58 12.715 20 15 20s4.461-.42 6.081-1.196c.17-.082.35-.175.531-.28.129-.074.298-.028.338.116q.05.177.05.36c0 .768-.674 1.47-1.782 2-1.282.614-3.145 1-5.218 1s-3.936-.386-5.218-1c-.608-.291-1.086-.634-1.393-1.011C8.137 19.679 8 19.346 8 19"/></svg>