<svg xmlns="http://www.w3.org/2000/svg" width="32" height="32" fill="none"><path fill="#fff" d="M25.693 7.107A22.6 22.6 0 0 0 20 5.334a.13.13 0 0 0-.093.04c-.24.44-.52 1.013-.707 1.453a21.5 21.5 0 0 0-6.4 0 13 13 0 0 0-.72-1.453c-.013-.027-.053-.04-.093-.04-2 .347-3.907.947-5.694 1.773-.013 0-.026.014-.04.027-3.626 5.427-4.626 10.707-4.133 15.933 0 .027.013.054.04.067 2.4 1.76 4.707 2.827 6.987 3.533.04.014.08 0 .093-.026a17 17 0 0 0 1.427-2.32c.026-.054 0-.107-.054-.12-.76-.294-1.48-.64-2.186-1.04-.054-.027-.054-.107-.014-.147.147-.107.294-.227.44-.333a.08.08 0 0 1 .094-.014c4.586 2.094 9.533 2.094 14.066 0a.08.08 0 0 1 .094.014c.146.12.293.226.44.346.053.04.053.12-.014.147-.693.413-1.426.747-2.186 1.04-.054.013-.067.08-.054.12.427.813.907 1.587 1.427 2.32.04.013.08.027.12.013 2.293-.706 4.6-1.773 7-3.533a.07.07 0 0 0 .04-.067c.587-6.04-.973-11.28-4.133-15.933-.014-.013-.027-.027-.054-.027M11.36 19.881c-1.373 0-2.52-1.267-2.52-2.827s1.12-2.827 2.52-2.827c1.413 0 2.533 1.28 2.52 2.827 0 1.56-1.12 2.827-2.52 2.827m9.293 0c-1.373 0-2.52-1.267-2.52-2.827s1.12-2.827 2.52-2.827c1.414 0 2.534 1.28 2.52 2.827 0 1.56-1.106 2.827-2.52 2.827"/></svg>