<svg xmlns="http://www.w3.org/2000/svg" width="32" height="32" fill="none"><path stroke="#0975e5" stroke-linecap="round" stroke-linejoin="round" stroke-width="2" d="M28 16c0 6.627-5.373 12-12 12-1.596 0-3.12-.312-4.513-.877-.266-.109-.4-.163-.507-.187a1.2 1.2 0 0 0-.292-.032c-.11 0-.23.02-.471.06l-4.744.79c-.497.083-.745.125-.925.048a.67.67 0 0 1-.35-.35c-.077-.18-.035-.428.047-.925l.791-4.744c.04-.24.06-.36.06-.471a1.2 1.2 0 0 0-.032-.292c-.024-.107-.078-.24-.187-.507A12 12 0 0 1 4 16C4 9.373 9.373 4 16 4s12 5.373 12 12"/></svg>