<svg xmlns="http://www.w3.org/2000/svg" width="24" height="24" fill="none"><path fill="#34dc8e" d="M3 6c0-1.657 3.134-3 7-3s7 1.343 7 3c0 .768-.674 1.47-1.782 2-1.282.614-3.145 1-5.218 1s-3.936-.386-5.218-1C3.674 7.47 3 6.768 3 6M3.05 9.64c.04-.144.21-.19.338-.116q.274.157.53.28C5.54 10.58 7.716 11 10 11q.436 0 .866-.02c.093-.005.144.11.08.177a7 7 0 0 0-1.2 1.695.25.25 0 0 1-.232.14c-1.877-.054-3.55-.427-4.732-.992C3.674 11.47 3 10.768 3 10q0-.183.05-.36M9.517 18.994c.095.002.18.058.223.142a7 7 0 0 0 1.171 1.67c.06.063.02.168-.066.172A17 17 0 0 1 10 21c-2.073 0-3.936-.386-5.218-1C3.674 19.47 3 18.768 3 18q0-.183.05-.36c.04-.144.21-.19.338-.116q.274.157.53.28c1.506.72 3.492 1.135 5.6 1.19M9 16q0-.381.04-.75a.26.26 0 0 0-.24-.29c-1.838-.12-3.548-.518-4.881-1.156a8 8 0 0 1-.531-.28c-.129-.074-.298-.028-.338.116Q3 13.817 3 14c0 .768.674 1.47 1.782 2 1.021.489 2.41.833 3.982.953a.255.255 0 0 0 .268-.282A7 7 0 0 1 9 16M21 16a5 5 0 1 1-10 0 5 5 0 0 1 10 0"/><path fill="#fff" d="m13.087 15.982 2.949-3.52c.12-.144.353-.042.33.143l-.269 2.133a.375.375 0 0 0 .372.422h2.374c.167 0 .261.18.158.303l-2.949 3.52c-.12.144-.353.043-.33-.143l.269-2.133a.375.375 0 0 0-.372-.422h-2.374c-.167 0-.261-.18-.158-.303"/></svg>