<svg xmlns="http://www.w3.org/2000/svg" width="16" height="16" fill="none"><g fill="#34dc8e" clip-path="url(#a)"><path d="M7.5 12a.5.5 0 0 0 1 0v-2a.5.5 0 0 0-1 0z"/><path fill-rule="evenodd" d="M8 .833c-.483 0-.924.133-1.407.358-.467.218-1.008.54-1.685.944l-.97.578c-.747.444-1.341.798-1.791 1.137-.465.35-.814.71-1.04 1.183-.228.475-.29.971-.27 1.55.019.561.117 1.243.24 2.098l.195 1.355c.158 1.1.284 1.972.471 2.652.194.7.468 1.256.963 1.683.495.426 1.087.616 1.812.707.703.088 1.59.088 2.71.088h1.544c1.12 0 2.007 0 2.71-.088.725-.09 1.317-.281 1.812-.707.495-.427.77-.983.963-1.683.187-.68.313-1.553.471-2.652l.195-1.355c.123-.855.221-1.537.24-2.097.02-.58-.042-1.076-.269-1.55-.227-.475-.576-.835-1.04-1.184-.45-.339-1.045-.693-1.791-1.137l-.97-.578c-.678-.404-1.219-.726-1.686-.944C8.924.966 8.483.833 8 .833M5.397 3.007c.705-.42 1.202-.715 1.619-.91.406-.19.698-.264.984-.264s.578.075.984.264c.417.195.914.49 1.619.91l.923.55c.776.462 1.324.79 1.726 1.092.392.295.607.54.74.817s.188.596.172 1.083c-.017.5-.107 1.128-.235 2.018l-.186 1.292c-.164 1.142-.282 1.951-.45 2.563-.165.597-.364.943-.652 1.19-.289.25-.663.396-1.283.474-.634.08-1.459.08-2.62.08H7.262c-1.162 0-1.987 0-2.621-.08-.62-.078-.994-.225-1.283-.473s-.487-.594-.652-1.191c-.168-.612-.286-1.421-.45-2.563L2.07 8.567c-.128-.89-.218-1.518-.235-2.018-.016-.487.039-.806.172-1.083.133-.278.348-.522.74-.817.402-.302.95-.63 1.726-1.092z" clip-rule="evenodd"/></g><defs><clipPath id="a"><path fill="#fff" d="M0 0h16v16H0z"/></clipPath></defs></svg>