<svg xmlns="http://www.w3.org/2000/svg" width="32" height="32" fill="none"><path fill="#34dc8e" fill-rule="evenodd" d="M16 30c7.732 0 14-6.268 14-14S23.732 2 16 2 2 8.268 2 16c0 2.51.661 4.867 1.818 6.905L2 30l7.315-1.696A13.94 13.94 0 0 0 16 30m0-2.154c6.543 0 11.846-5.303 11.846-11.846 0-6.542-5.303-11.846-11.846-11.846C9.458 4.154 4.154 9.458 4.154 16c0 2.526.79 4.868 2.138 6.79L5.23 26.77l4.049-1.013a11.8 11.8 0 0 0 6.72 2.09" clip-rule="evenodd"/><path fill="#34dc8e" d="M12.5 9.5c-.333-.668-.844-.609-1.36-.609-.921 0-2.359 1.104-2.359 3.16 0 1.684.742 3.528 3.243 6.286 2.414 2.661 5.585 4.038 8.218 3.991 2.633-.046 3.175-2.312 3.175-3.077 0-.34-.21-.509-.356-.555-.897-.43-2.552-1.232-2.928-1.383-.377-.15-.573.053-.695.164-.342.325-1.019 1.284-1.25 1.5s-.578.107-.721.025c-.53-.212-1.964-.85-3.107-1.959-1.415-1.37-1.498-1.842-1.764-2.262-.213-.336-.057-.542.021-.632.305-.352.726-.894.914-1.164s.04-.68-.05-.935c-.387-1.097-.715-2.015-.981-2.55"/></svg>