<svg xmlns="http://www.w3.org/2000/svg" width="26" height="26" fill="none"><g clip-path="url(#a)"><path fill="url(#b)" d="M17.231 5.385H7.078a2.54 2.54 0 0 0-2.539 2.538v8.462a2.54 2.54 0 0 0 2.539 2.538H17.23a2.54 2.54 0 0 0 2.539-2.538V7.923a2.54 2.54 0 0 0-2.539-2.538" opacity=".3"/><path stroke="#baeed0" stroke-linecap="round" stroke-width=".846" d="M12.154 18.923H7.078a2.54 2.54 0 0 1-2.539-2.538V7.923a2.54 2.54 0 0 1 2.539-2.538H17.23a2.54 2.54 0 0 1 2.539 2.538v3.385"/><path stroke="#baeed0" stroke-width=".846" d="M17.653 20.192a3.385 3.385 0 1 0 0-6.769 3.385 3.385 0 0 0 0 6.77Z"/><path stroke="#43f4b6" stroke-linecap="round" stroke-width=".846" d="M17.23 15.539v1.692h1.693"/><path stroke="#43f4b6" stroke-linecap="round" stroke-miterlimit="10" stroke-width=".846" d="M7.924 4.539V6.23M16.385 4.539V6.23"/><g filter="url(#c)" opacity=".5"><path fill="#43f4b6" d="M12.154 21.462a2.539 2.539 0 1 0 0-5.077 2.539 2.539 0 0 0 0 5.077"/></g><g filter="url(#d)" opacity=".5"><path fill="#43f4b6" d="M12.154 20.954a2.03 2.03 0 1 0 0-4.062 2.03 2.03 0 0 0 0 4.062"/></g><g filter="url(#e)"><path fill="#baeed0" d="M12.154 20.446a1.523 1.523 0 1 0 0-3.046 1.523 1.523 0 0 0 0 3.046"/></g><g filter="url(#f)"><path fill="#fff" d="M12.154 19.939a1.015 1.015 0 1 0 0-2.031 1.015 1.015 0 0 0 0 2.03"/></g></g><defs><filter id="c" width="13.2" height="13.2" x="5.554" y="12.323" color-interpolation-filters="sRGB" filterUnits="userSpaceOnUse"><feFlood flood-opacity="0" result="BackgroundImageFix"/><feBlend in="SourceGraphic" in2="BackgroundImageFix" result="shape"/><feGaussianBlur result="effect1_foregroundBlur_2011_1893" stdDeviation="2.031"/></filter><filter id="d" width="12.185" height="12.185" x="6.061" y="12.831" color-interpolation-filters="sRGB" filterUnits="userSpaceOnUse"><feFlood flood-opacity="0" result="BackgroundImageFix"/><feBlend in="SourceGraphic" in2="BackgroundImageFix" result="shape"/><feGaussianBlur result="effect1_foregroundBlur_2011_1893" stdDeviation="2.031"/></filter><filter id="e" width="7.108" height="7.108" x="8.6" y="15.369" color-interpolation-filters="sRGB" filterUnits="userSpaceOnUse"><feFlood flood-opacity="0" result="BackgroundImageFix"/><feBlend in="SourceGraphic" in2="BackgroundImageFix" result="shape"/><feGaussianBlur result="effect1_foregroundBlur_2011_1893" stdDeviation="1.015"/></filter><filter id="f" width="3.046" height="3.046" x="10.631" y="17.4" color-interpolation-filters="sRGB" filterUnits="userSpaceOnUse"><feFlood flood-opacity="0" result="BackgroundImageFix"/><feBlend in="SourceGraphic" in2="BackgroundImageFix" result="shape"/><feGaussianBlur result="effect1_foregroundBlur_2011_1893" stdDeviation=".254"/></filter><linearGradient id="b" x1="4.539" x2="19.347" y1="4.962" y2="18.077" gradientUnits="userSpaceOnUse"><stop stop-color="#f49643"/><stop offset=".867" stop-color="#01010a"/></linearGradient><clipPath id="a"><path fill="#fff" d="M0 0h26v26H0z"/></clipPath></defs></svg>