<svg xmlns="http://www.w3.org/2000/svg" width="24" height="24" fill="none"><path fill="#34dc8e" d="M4 5.333C4 3.493 7.582 2 12 2s8 1.492 8 3.333c0 .854-.77 1.633-2.037 2.223-1.465.682-3.594 1.11-5.963 1.11s-4.498-.428-5.963-1.11C4.77 6.966 4 6.187 4 5.333M4 9.778v-.895c0-.08.09-.128.158-.084.33.216.68.404 1.035.57 1.798.837 4.233 1.298 6.807 1.298s5.01-.461 6.807-1.298a8 8 0 0 0 1.035-.57.102.102 0 0 1 .158.084v.895c0 .854-.77 1.632-2.037 2.222-1.465.682-3.594 1.111-5.963 1.111S7.502 12.681 6.037 12C4.77 11.41 4 10.632 4 9.778M4.158 13.244a.102.102 0 0 0-.158.084v.894c0 .854.77 1.633 2.037 2.223 1.465.681 3.594 1.11 5.963 1.11s4.498-.429 5.963-1.11C19.23 15.855 20 15.076 20 14.222v-.894c0-.08-.09-.129-.159-.085-.33.216-.679.405-1.034.57-1.798.837-4.233 1.298-6.807 1.298s-5.01-.46-6.807-1.298a8 8 0 0 1-1.035-.57M4 18.667v-.895c0-.08.09-.128.158-.084.33.215.68.404 1.035.57 1.798.837 4.233 1.297 6.807 1.297s5.01-.46 6.807-1.297a8 8 0 0 0 1.035-.57.102.102 0 0 1 .158.084v.895C20 20.507 16.418 22 12 22s-8-1.492-8-3.333"/></svg>